<svg width="40" height="40" viewBox="0 0 40 40" fill="none" xmlns="http://www.w3.org/2000/svg">
<mask id="mask0" style="mask-type:alpha" maskUnits="userSpaceOnUse" x="0" y="0" width="40" height="40">
<path d="M40 20C40 8.9543 31.0457 0 20 0C8.9543 0 0 8.9543 0 20C0 31.0457 8.9543 40 20 40C31.0457 40 40 31.0457 40 20Z" fill="white"/>
</mask>
<g mask="url(#mask0)">
<path d="M40 20C40 8.9543 31.0457 0 20 0C8.9543 0 0 8.9543 0 20C0 31.0457 8.9543 40 20 40C31.0457 40 40 31.0457 40 20Z" fill="#C7DCF0"/>
<path d="M48.3249 33.2583L41.4231 7.5003C40.4701 3.94386 36.8146 1.83331 33.2581 2.78625L7.5001 9.68809C3.94366 10.641 1.83311 14.2966 2.78606 17.8531L9.6879 43.6111C10.6408 47.1675 14.2964 49.2781 17.8529 48.3251L43.6109 41.4233C47.1673 40.4703 49.2779 36.8148 48.3249 33.2583Z" fill="#FB6B41"/>
<path d="M17.702 20.6228C17.6057 21.7237 18.0964 22.8305 19.0662 23.6997C20.036 24.5689 21.4054 25.1294 22.8733 25.2578C24.3411 25.3862 25.787 25.0721 26.893 24.3844C27.9991 23.6968 28.6745 22.6921 28.7708 21.5912" fill="black"/>
<path d="M20.8566 16.4372C20.9101 15.8259 20.5818 15.2978 20.1233 15.2577C19.6648 15.2176 19.2498 15.6806 19.1963 16.2919C19.1428 16.9033 19.4711 17.4313 19.9296 17.4715C20.3881 17.5116 20.8031 17.0485 20.8566 16.4372Z" fill="black"/>
<path d="M27.4977 17.0182C27.5512 16.4069 27.2229 15.8788 26.7644 15.8387C26.3059 15.7986 25.8908 16.2616 25.8374 16.8729C25.7839 17.4842 26.1122 18.0123 26.5707 18.0524C27.0292 18.0926 27.4442 17.6295 27.4977 17.0182Z" fill="black"/>
</g>
</svg>
