<svg width="143" height="23" viewBox="0 0 143 23" fill="none" xmlns="http://www.w3.org/2000/svg">
<circle cx="11.5" cy="11.5" r="9" stroke="#0671D4" stroke-width="5"/>
<path d="M43.997 5.366L40.868 17H37.592L35.093 8.537L32.531 17H29.255L26.147 5.366H29.108L30.998 14.354L33.581 5.366H36.71L39.314 14.354L41.225 5.366H43.997Z" fill="black"/>
<path d="M50.0299 5.219C51.0099 5.219 51.8499 5.45 52.5499 5.912C53.2499 6.374 53.7469 6.997 54.0409 7.781V5.366H56.9809V17H54.0409V14.564C53.7469 15.348 53.2499 15.978 52.5499 16.454C51.8499 16.916 51.0099 17.147 50.0299 17.147C49.0499 17.147 48.1679 16.909 47.3839 16.433C46.5999 15.957 45.9839 15.271 45.5359 14.375C45.1019 13.465 44.8849 12.401 44.8849 11.183C44.8849 9.965 45.1019 8.908 45.5359 8.012C45.9839 7.102 46.5999 6.409 47.3839 5.933C48.1679 5.457 49.0499 5.219 50.0299 5.219ZM50.9539 7.802C50.0299 7.802 49.2879 8.103 48.7279 8.705C48.1679 9.307 47.8879 10.133 47.8879 11.183C47.8879 12.233 48.1679 13.059 48.7279 13.661C49.2879 14.249 50.0299 14.543 50.9539 14.543C51.8499 14.543 52.5849 14.242 53.1589 13.64C53.7469 13.024 54.0409 12.205 54.0409 11.183C54.0409 10.147 53.7469 9.328 53.1589 8.726C52.5849 8.11 51.8499 7.802 50.9539 7.802Z" fill="black"/>
<path d="M64.8933 5.219C66.3913 5.219 67.6373 5.625 68.6313 6.437C69.6393 7.249 70.2693 8.355 70.5213 9.755H67.3923C67.2663 9.139 66.9793 8.656 66.5313 8.306C66.0833 7.942 65.5163 7.76 64.8303 7.76C64.0463 7.76 63.3883 8.054 62.8563 8.642C62.3383 9.216 62.0793 10.063 62.0793 11.183C62.0793 12.303 62.3383 13.157 62.8563 13.745C63.3883 14.319 64.0463 14.606 64.8303 14.606C65.5163 14.606 66.0833 14.431 66.5313 14.081C66.9793 13.717 67.2663 13.227 67.3923 12.611H70.5213C70.2693 14.011 69.6393 15.117 68.6313 15.929C67.6373 16.741 66.3913 17.147 64.8933 17.147C63.7593 17.147 62.7513 16.909 61.8693 16.433C60.9873 15.943 60.3013 15.25 59.8113 14.354C59.3213 13.458 59.0763 12.401 59.0763 11.183C59.0763 9.965 59.3213 8.908 59.8113 8.012C60.3013 7.102 60.9873 6.409 61.8693 5.933C62.7513 5.457 63.7593 5.219 64.8933 5.219Z" fill="black"/>
<path d="M77.1822 5.219C78.1622 5.219 78.9952 5.45 79.6812 5.912C80.3812 6.374 80.8852 6.997 81.1932 7.781V1.46H84.1332V17H81.1932V14.564C80.8852 15.348 80.3812 15.978 79.6812 16.454C78.9952 16.916 78.1622 17.147 77.1822 17.147C76.2022 17.147 75.3202 16.909 74.5362 16.433C73.7522 15.957 73.1362 15.271 72.6882 14.375C72.2542 13.465 72.0372 12.401 72.0372 11.183C72.0372 9.965 72.2542 8.908 72.6882 8.012C73.1362 7.102 73.7522 6.409 74.5362 5.933C75.3202 5.457 76.2022 5.219 77.1822 5.219ZM78.1062 7.802C77.1822 7.802 76.4402 8.103 75.8802 8.705C75.3202 9.307 75.0402 10.133 75.0402 11.183C75.0402 12.233 75.3202 13.059 75.8802 13.661C76.4402 14.249 77.1822 14.543 78.1062 14.543C79.0022 14.543 79.7372 14.242 80.3112 13.64C80.8992 13.024 81.1932 12.205 81.1932 11.183C81.1932 10.147 80.8992 9.328 80.3112 8.726C79.7372 8.11 79.0022 7.802 78.1062 7.802Z" fill="black"/>
<path d="M97.7576 10.742C97.7576 11.036 97.7226 11.372 97.6526 11.75H89.1266C89.1686 12.786 89.4486 13.549 89.9666 14.039C90.4846 14.529 91.1286 14.774 91.8986 14.774C92.5846 14.774 93.1516 14.606 93.5996 14.27C94.0616 13.934 94.3556 13.479 94.4816 12.905H97.6106C97.4566 13.717 97.1276 14.445 96.6236 15.089C96.1196 15.733 95.4686 16.237 94.6706 16.601C93.8866 16.965 93.0116 17.147 92.0456 17.147C90.9116 17.147 89.9036 16.909 89.0216 16.433C88.1396 15.943 87.4536 15.25 86.9636 14.354C86.4736 13.458 86.2286 12.401 86.2286 11.183C86.2286 9.965 86.4736 8.908 86.9636 8.012C87.4536 7.102 88.1396 6.409 89.0216 5.933C89.9036 5.457 90.9116 5.219 92.0456 5.219C93.1936 5.219 94.1946 5.457 95.0486 5.933C95.9166 6.409 96.5816 7.067 97.0436 7.907C97.5196 8.733 97.7576 9.678 97.7576 10.742ZM94.7756 10.448C94.8176 9.496 94.5656 8.775 94.0196 8.285C93.4876 7.795 92.8296 7.55 92.0456 7.55C91.2476 7.55 90.5756 7.795 90.0296 8.285C89.4836 8.775 89.1826 9.496 89.1266 10.448H94.7756Z" fill="black"/>
<path d="M103.871 5.219C105.285 5.219 106.419 5.576 107.273 6.29C108.127 7.004 108.659 7.956 108.869 9.146H106.097C105.985 8.586 105.733 8.138 105.341 7.802C104.949 7.466 104.438 7.298 103.808 7.298C103.304 7.298 102.912 7.417 102.632 7.655C102.352 7.893 102.212 8.215 102.212 8.621C102.212 8.943 102.324 9.202 102.548 9.398C102.772 9.594 103.052 9.748 103.388 9.86C103.724 9.972 104.207 10.105 104.837 10.259C105.719 10.455 106.433 10.665 106.979 10.889C107.539 11.099 108.015 11.442 108.407 11.918C108.813 12.38 109.016 13.01 109.016 13.808C109.016 14.802 108.624 15.607 107.84 16.223C107.07 16.839 106.027 17.147 104.711 17.147C103.199 17.147 101.988 16.811 101.078 16.139C100.168 15.453 99.6146 14.48 99.4186 13.22H102.254C102.324 13.794 102.576 14.249 103.01 14.585C103.444 14.907 104.011 15.068 104.711 15.068C105.215 15.068 105.6 14.949 105.866 14.711C106.132 14.459 106.265 14.137 106.265 13.745C106.265 13.409 106.146 13.136 105.908 12.926C105.684 12.716 105.397 12.555 105.047 12.443C104.711 12.331 104.228 12.198 103.598 12.044C102.73 11.848 102.023 11.652 101.477 11.456C100.945 11.246 100.483 10.917 100.091 10.469C99.7126 10.021 99.5236 9.405 99.5236 8.621C99.5236 7.613 99.9086 6.794 100.679 6.164C101.449 5.534 102.513 5.219 103.871 5.219Z" fill="black"/>
<path d="M110.885 2.027C110.885 1.551 111.053 1.166 111.389 0.872004C111.725 0.564004 112.166 0.410004 112.712 0.410004C113.258 0.410004 113.699 0.564004 114.035 0.872004C114.371 1.166 114.539 1.551 114.539 2.027C114.539 2.489 114.371 2.874 114.035 3.182C113.699 3.476 113.258 3.623 112.712 3.623C112.166 3.623 111.725 3.476 111.389 3.182C111.053 2.874 110.885 2.489 110.885 2.027ZM114.182 5.366V17H111.221V5.366H114.182Z" fill="black"/>
<path d="M121.418 5.219C122.398 5.219 123.238 5.45 123.938 5.912C124.638 6.374 125.135 6.997 125.429 7.781V5.366H128.369V17.042C128.369 18.12 128.152 19.086 127.718 19.94C127.298 20.808 126.661 21.487 125.807 21.977C124.967 22.467 123.945 22.712 122.741 22.712C121.061 22.712 119.703 22.313 118.667 21.515C117.631 20.717 117.001 19.632 116.777 18.26H119.696C119.864 18.848 120.186 19.303 120.662 19.625C121.152 19.961 121.775 20.129 122.531 20.129C123.399 20.129 124.099 19.87 124.631 19.352C125.163 18.848 125.429 18.078 125.429 17.042V14.564C125.135 15.348 124.638 15.978 123.938 16.454C123.238 16.916 122.398 17.147 121.418 17.147C120.438 17.147 119.556 16.909 118.772 16.433C117.988 15.957 117.372 15.271 116.924 14.375C116.49 13.465 116.273 12.401 116.273 11.183C116.273 9.965 116.49 8.908 116.924 8.012C117.372 7.102 117.988 6.409 118.772 5.933C119.556 5.457 120.438 5.219 121.418 5.219ZM122.342 7.802C121.418 7.802 120.676 8.103 120.116 8.705C119.556 9.307 119.276 10.133 119.276 11.183C119.276 12.233 119.556 13.059 120.116 13.661C120.676 14.249 121.418 14.543 122.342 14.543C123.238 14.543 123.973 14.242 124.547 13.64C125.135 13.024 125.429 12.205 125.429 11.183C125.429 10.147 125.135 9.328 124.547 8.726C123.973 8.11 123.238 7.802 122.342 7.802Z" fill="black"/>
<path d="M137.982 5.198C139.326 5.198 140.397 5.639 141.195 6.521C141.993 7.403 142.392 8.642 142.392 10.238V17H139.452V10.574C139.452 9.65 139.214 8.936 138.738 8.432C138.262 7.914 137.611 7.655 136.785 7.655C135.945 7.655 135.273 7.928 134.769 8.474C134.265 9.02 134.013 9.804 134.013 10.826V17H131.052V5.366H134.013V7.697C134.321 6.913 134.825 6.304 135.525 5.87C136.239 5.422 137.058 5.198 137.982 5.198Z" fill="black"/>
</svg>
