<svg width="124" height="41" viewBox="0 0 124 41" fill="none" xmlns="http://www.w3.org/2000/svg">
<path d="M22.8385 40.8604C35.4519 40.8604 45.6771 31.7135 45.6771 20.4302C45.6771 9.14691 35.4519 0 22.8385 0C10.2252 0 0 9.14691 0 20.4302C0 31.7135 10.2252 40.8604 22.8385 40.8604Z" fill="black"/>
<path d="M64.8878 11.7807C58.195 7.90975 58.9214 2.38781 66.9085 2.38781L86.0655 2.45688V1.13477H56.4022C47.2364 1.13477 47.134 11.4321 56.28 13.0239C64.1944 14.4019 71.5046 16.4048 72.8022 17.9111C73.9347 19.2266 73.2314 20.279 72.3697 20.279C70.8409 20.279 68.0509 17.2665 61.1436 17.2665C51.2183 17.2665 47.7614 22.8016 47.7614 27.327L47.7581 40.0646H57.2639V38.9727C57.2639 38.9727 57.2606 30.0271 57.2606 29.9581C57.2606 22.2392 71.1678 26.8666 74.1031 22.2129C77.395 16.9803 71.5805 15.6549 64.8878 11.7807Z" fill="black"/>
<path d="M113.003 27.8757C111.197 34.5222 106.338 39.1702 102.042 39.1702C102.039 39.1702 102.036 39.1702 102.033 39.1735C96.2749 39.1209 90.9366 30.7256 90.9399 20.3778C90.9399 10.0661 96.2386 1.69717 101.973 1.5887C104.33 1.6643 102.013 9.74401 106.717 9.97411C111.445 10.2042 111.805 9.25752 112.904 12.8766H123.97C123.97 12.8766 118.85 1.05947 107.648 6.11504C106.031 6.84478 107.318 0.651871 102.042 0.569693V0.566406C102.023 0.566406 102.003 0.566406 101.98 0.566406C101.966 0.566406 101.953 0.566406 101.94 0.566406V0.569693C89.3486 0.635435 79.1704 9.44488 79.1737 20.2989C79.1737 31.1858 89.408 40.0117 102.042 40.0314C102.307 40.038 102.571 40.0314 102.838 40.0314C112.372 40.0314 120.55 35.012 124 27.8757H113.003Z" fill="black"/>
</svg>
